<?xml version="1.0" encoding="UTF-8"?>
<!DOCTYPE svg PUBLIC "-//W3C//DTD SVG 1.1//EN" "http://www.w3.org/Graphics/SVG/1.1/DTD/svg11.dtd">
<!-- Creator: CorelDRAW (Versão OEM) -->
<svg xmlns="http://www.w3.org/2000/svg" xml:space="preserve" width="91.44mm" height="91.44mm" version="1.1" style="shape-rendering:geometricPrecision; text-rendering:geometricPrecision; image-rendering:optimizeQuality; fill-rule:evenodd; clip-rule:evenodd"
viewBox="0 0 9144 9144"
 xmlns:xlink="http://www.w3.org/1999/xlink"
 xmlns:xodm="http://www.corel.com/coreldraw/odm/2003">
 <defs>
  <style type="text/css">
   <![CDATA[
    .fil0 {fill:#373435;fill-rule:nonzero}
   ]]>
  </style>
 </defs>
 <g id="Camada_x0020_1">
  <metadata id="CorelCorpID_0Corel-Layer"/>
  <path class="fil0" d="M8166.59 7109.06l0 -3911.91c289.83,-46.83 511.77,-296.27 511.77,-599.44 0,-336.54 -272.75,-609.29 -609.16,-609.29 -336.65,0 -609.4,272.75 -609.4,609.29 0,192.44 90.96,362.05 230.37,473.61l-1083.47 1354.22 -1826.68 -2407.85c272.04,-121.85 461.8,-394.35 461.8,-711.82 0,-430.65 -349.08,-779.84 -779.82,-779.84 -430.79,0 -779.86,349.19 -779.86,779.83 0,317.46 189.74,589.97 461.8,711.81l-1826.73 2407.86 -1083.35 -1354.23c139.35,-111.56 230.36,-281.17 230.36,-473.61 0,-336.54 -272.79,-609.29 -609.45,-609.29 -336.49,0.02 -609.24,272.77 -609.24,609.31 0,303.17 222.01,552.61 511.89,599.46l0 3911.91c-230.87,12.86 -414.38,202.38 -414.38,436.25 0,242.42 196.31,438.74 438.79,438.74l999.25 0 2290.86 0 4070.3 0c242.31,0 438.73,-196.32 438.73,-438.74 0,-234 -183.66,-423.39 -414.38,-436.27z"/>
 </g>
</svg>
